<svg fill="#fff" xmlns="http://www.w3.org/2000/svg" width="800" height="800" viewBox="0 0 91.334 91.334" xml:space="preserve" stroke="#fff"><path d="M6.834 11.549H1a1 1 0 0 0-1 1v66.236a1 1 0 0 0 1 1h5.834a1 1 0 0 0 1-1V12.549a1 1 0 0 0-1-1zM62.043 11.549h-4.168a1 1 0 0 0-1 1v66.236a1 1 0 0 0 1 1h4.168a1 1 0 0 0 1-1V12.549a1 1 0 0 0-1-1zM17 11.549h-4a1 1 0 0 0-1 1v66.236a1 1 0 0 0 1 1h4a1 1 0 0 0 1-1V12.549a1 1 0 0 0-1-1zM90.334 11.549h-4a1 1 0 0 0-1 1v66.236a1 1 0 0 0 1 1h4a1 1 0 0 0 1-1V12.549a1 1 0 0 0-1-1zM81.167 11.549h-2.724a1 1 0 0 0-1 1v66.236a1 1 0 0 0 1 1h2.724a1 1 0 0 0 1-1V12.549a1 1 0 0 0-1-1zM51.875 11.549h-4a1 1 0 0 0-1 1v66.236a1 1 0 0 0 1 1h4a1 1 0 0 0 1-1V12.549a1 1 0 0 0-1-1zM42.167 11.549h-2.5a1 1 0 0 0-1 1v66.236a1 1 0 0 0 1 1h2.5a1 1 0 0 0 1-1V12.549a1 1 0 0 0-1-1zM73.523 11.549H71.98a1 1 0 0 0-1 1v66.236a1 1 0 0 0 1 1h1.543a1 1 0 0 0 1-1V12.549a1 1 0 0 0-1-1zM33.667 11.549h-4a1 1 0 0 0-1 1v66.236a1 1 0 0 0 1 1h4a1 1 0 0 0 1-1V12.549a1 1 0 0 0-1-1zM23.667 11.549h-1a1 1 0 0 0-1 1v66.236a1 1 0 0 0 1 1h1a1 1 0 0 0 1-1V12.549a1 1 0 0 0-1-1zM67.227 11.549h-.363c-.551 0-1 .448-1 1v66.236c0 .552.449 1 1 1h.363c.551 0 1-.448 1-1V12.549c0-.552-.45-1-1-1z"/></svg>